<?xml version="1.0" encoding="UTF-8"?><svg id="Layer_1" xmlns="http://www.w3.org/2000/svg" xmlns:xlink="http://www.w3.org/1999/xlink" viewBox="0 0 169 45"><defs><style>.cls-1{clip-path:url(#clippath-1);}.cls-2{fill:#0094c3;}.cls-3{clip-path:url(#clippath);}.cls-4{fill:none;}.cls-5{fill:#bcbec0;}</style><clipPath id="clippath"><rect class="cls-4" x="29.43" y="-.96" width="110.15" height="46.92"/></clipPath><clipPath id="clippath-1"><rect class="cls-4" x="29.43" y="-.96" width="110.15" height="46.92"/></clipPath></defs><g id="Artwork_32"><g class="cls-3"><g class="cls-1"><path class="cls-5" d="M133.43,29.98h-.88v2.85h.88c.42,0,.75-.13,1-.38,.25-.26,.37-.6,.37-1.04s-.12-.78-.37-1.04c-.25-.26-.58-.38-1-.38"/><path class="cls-5" d="M125.74,23.5c-1.89,0-3.43,1.54-3.43,3.43v12.17h12.25c1.89,0,3.42-1.53,3.42-3.43v-12.17h-12.25Zm2.34,10.21h-3.07v-4.6h.97v3.73h2.1v.87Zm2.91-3.73h-1.34v3.73h-.97v-3.73h-1.34v-.87h3.65v.87Zm4.5,2.64c-.19,.35-.46,.61-.81,.8-.35,.19-.75,.29-1.2,.29h-1.9v-4.6h1.9c.45,0,.86,.1,1.2,.29,.35,.19,.62,.46,.81,.81,.19,.35,.29,.75,.29,1.21s-.1,.86-.29,1.21"/><polygon class="cls-2" points="40.44 19.39 46.67 4.88 43.39 4.88 38.74 15.83 34.23 4.88 30.76 4.88 36.98 19.39 40.44 19.39"/><rect class="cls-2" x="47.36" y="4.88" width="3.12" height="14.51"/><rect class="cls-2" x="47.31" y=".6" width="3.21" height="3.36"/><path class="cls-2" d="M57.41,10.4c-1.64-1.03-2.19-1.55-2.19-2.05,0-.75,.69-1.2,1.85-1.2,.84,0,1.84,.29,2.74,.81l.33,.18v-2.99l-.13-.06c-.67-.3-1.76-.66-3.13-.66-2.08-.01-3.26,.72-3.88,1.33-.67,.66-1.04,1.52-1.04,2.42,0,1.89,.75,2.87,3.66,4.77,2.46,1.52,2.79,2.2,2.79,2.66,0,.87-.85,1.43-2.22,1.45-.92,0-2.35-.45-3.65-1.15l-.32-.17v2.98l.13,.06c1.05,.49,2.8,1.03,4.16,1.03,3.14-.02,5.16-1.67,5.16-4.19,0-1.82-1.12-3.18-4.27-5.21"/><polyline class="cls-2" points="63.01 19.39 66.13 19.39 66.13 4.88 63.01 4.88"/><rect class="cls-2" x="62.96" y=".6" width="3.21" height="3.36"/><path class="cls-2" d="M75.7,20.1c4.6,0,8.21-3.5,8.21-7.97s-3.61-7.97-8.21-7.97-8.18,3.5-8.18,7.97,3.59,7.97,8.18,7.97m-4.92-7.97c0-2.92,2.16-5.2,4.92-5.2s4.94,2.28,4.94,5.2-2.17,5.2-4.94,5.2-4.92-2.28-4.92-5.2"/><path class="cls-2" d="M91.6,7.32c1.43,0,3.14,.6,3.14,3.43v8.63h3.12V9.95c0-3.31-2.06-5.44-5.24-5.44-1.65,0-3.24,.62-4.36,1.68v-1.31h-3.02v14.51h3.12V10.51c0-2.17,1.93-3.19,3.24-3.19"/><path class="cls-5" d="M40.51,23.61c-4.63,0-8.26,3.38-8.26,7.7s3.63,7.7,8.26,7.7c1.09,0,2.64-.23,3.47-.72l.11-.06v-2.82h-.36l-.05,.03c-1.15,.74-2.36,.82-3.17,.82-2.85,0-4.99-2.13-4.99-4.95s2.19-4.96,4.99-4.96c1.3,0,2.37,.29,3.16,.87l.06,.04h.36v-2.82l-.1-.06c-.92-.57-2.45-.77-3.48-.77"/><path class="cls-5" d="M53.39,23.34c-4.59,0-8.18,3.5-8.18,7.97s3.59,7.97,8.18,7.97,8.21-3.5,8.21-7.97-3.61-7.97-8.21-7.97m4.94,7.97c0,2.92-2.17,5.2-4.94,5.2s-4.92-2.28-4.92-5.2,2.16-5.2,4.92-5.2,4.94,2.28,4.94,5.2"/><rect class="cls-5" x="68.12" y="21.72" width="3.12" height="16.84"/><rect class="cls-5" x="63.01" y="21.72" width="3.12" height="16.84"/><path class="cls-5" d="M80.37,23.34c-4.42,0-7.75,3.42-7.75,7.97s3.49,7.99,8.3,7.99c2.71,0,5-.92,6.81-2.74l.15-.15-1.91-2.06-.16,.16c-1.31,1.32-2.96,2-4.89,2-2.82,0-4.72-1.71-5-4.49h12.11v-.86c0-4.38-3.37-7.82-7.67-7.82m-4.25,6.13c.59-2.11,2.16-3.36,4.25-3.36s3.63,1.28,4.2,3.36h-8.45Z"/><path class="cls-5" d="M100.88,25.54c-1.36-1.31-3.17-2.1-4.85-2.1-.02,0-.05,0-.07,0-4.08,0-7.16,3.14-7.16,7.3s3.08,7.23,7.16,7.23c1.68,0,3.51-.77,4.87-2.02v.38c0,3.18-1.54,4.72-4.85,4.85-.94,.04-1.58,.04-3.15,.04h-4.01v3.15s4.42,0,4.76,0c1.77,0,3.57-.02,4.63-.2,2.67-.44,5.74-1.75,5.74-7.93v-12.21h-3.07v1.49Zm-4.63,9.61c-2.31-.1-4.19-2.06-4.22-4.37-.02-2.49,1.96-4.53,4.41-4.53s4.41,2.01,4.41,4.49-2.08,4.52-4.6,4.41"/><path class="cls-5" d="M120.7,31.16c0-4.38-3.37-7.82-7.67-7.82s-7.75,3.42-7.75,7.97,3.49,7.99,8.31,7.99c2.71,0,5-.92,6.8-2.74l.15-.15-1.91-2.06-.16,.16c-1.31,1.32-2.96,2-4.89,2-2.82,0-4.72-1.71-5-4.49h12.11v-.86Zm-11.92-1.69c.59-2.11,2.16-3.36,4.25-3.36s3.63,1.28,4.2,3.36h-8.45Z"/></g></g></g></svg>